<?xml version="1.0" encoding="UTF-8"?>
<svg version="1.1" xmlns="http://www.w3.org/2000/svg" width="576" height="576">
<path d="M0 0 C190.08 0 380.16 0 576 0 C576 190.08 576 380.16 576 576 C385.92 576 195.84 576 0 576 C0 385.92 0 195.84 0 0 Z " fill="#FEFEFE" transform="translate(0,0)"/>
<path d="M0 0 C3.43113381 1.42893771 5.13025359 3.09630308 7.3359375 6.0625 C7.94147461 6.86945312 8.54701172 7.67640625 9.17089844 8.5078125 C10.07630371 9.74144531 10.07630371 9.74144531 11 11 C11.54946289 11.73992188 12.09892578 12.47984375 12.66503906 13.2421875 C14.32689818 15.48864529 15.97685445 17.7434658 17.625 20 C22.88081954 27.16877021 28.21650348 34.26878936 33.64892578 41.3046875 C34.14763184 41.95179687 34.64633789 42.59890625 35.16015625 43.265625 C35.58949463 43.82024414 36.01883301 44.37486328 36.46118164 44.94628906 C37.22289673 45.96287598 37.22289673 45.96287598 38 47 C38.84503082 47.88561111 39.69006165 48.77122223 40.56069946 49.68367004 C44.58356117 55.38813894 43.65343201 62.43804273 43.56762695 69.11499023 C43.56621528 70.65294854 43.56701079 72.19091022 43.56983948 73.72886658 C43.57127042 77.88977403 43.54193347 82.04995657 43.50696969 86.21069598 C43.47565214 90.56417814 43.47277121 94.91767807 43.46684265 99.27125549 C43.45132002 107.50893614 43.41031309 115.74628387 43.3600952 123.98381811 C43.30415241 133.36464965 43.27670285 142.74549733 43.25161803 152.12645423 C43.19939563 171.41786309 43.10772383 190.70881572 43 210 C32.77 210 22.54 210 12 210 C12.01683838 205.33190186 12.03367676 200.66380371 12.05102539 195.85424805 C12.10013833 180.41952349 12.10023194 164.98508494 12.07515812 149.55031109 C12.06115147 140.19340257 12.06381152 130.83706164 12.10620117 121.48022461 C12.14312104 113.32130037 12.14826638 105.16306841 12.11582941 97.00411445 C12.09975988 92.68680664 12.09921249 88.37079661 12.13676643 84.05359459 C12.17167566 79.98256701 12.16381883 75.91377434 12.12437057 71.84280968 C12.11727786 70.35580656 12.12527807 68.86863526 12.15022469 67.38182449 C12.29885125 57.86936402 10.68946213 52.06502999 4.12491512 44.85889912 C2.21966015 42.78052532 2.21966015 42.78052532 0 43 C-5.58383118 47.70670655 -9.34869944 52.52977747 -10.02775395 59.89762151 C-10.19470132 63.76857967 -10.17060872 67.62361204 -10.11352539 71.49682617 C-10.12086137 73.24228927 -10.1321504 74.9877395 -10.14706421 76.7331543 C-10.17621653 81.44164999 -10.15049246 86.14839516 -10.11447453 90.85678267 C-10.08622742 95.78824736 -10.10905404 100.71947773 -10.12632751 105.6509552 C-10.15129906 114.97586284 -10.13072715 124.30008433 -10.09355396 133.62492877 C-10.05344639 144.24657207 -10.06447295 154.86797301 -10.07967007 165.48965871 C-10.1097747 187.32676159 -10.0693218 209.16297079 -10 231 C7.49 231 24.98 231 43 231 C43 245.19 43 259.38 43 274 C25.51 274 8.02 274 -10 274 C-10 324.82 -10 375.64 -10 428 C-3.07 428 3.86 428 11 428 C11 382.79 11 337.58 11 291 C21.89 291 32.78 291 44 291 C44 336.54 44 382.08 44 429 C45.32 429.66 46.64 430.32 48 431 C50.29444287 432.57900149 52.55967452 434.17649091 54.8125 435.8125 C55.69905273 436.45155273 55.69905273 436.45155273 56.60351562 437.10351562 C61.60440341 440.70829951 61.60440341 440.70829951 63.90380859 442.40380859 C66.58440117 444.36300123 68.82922771 445.9430759 72 447 C72 447.66 72 448.32 72 449 C25.47 449 -21.06 449 -69 449 C-69 448.34 -69 447.68 -69 447 C-67.15625 445.66015625 -67.15625 445.66015625 -64.5 444.0625 C-58.613639 440.440124 -52.95116716 436.54745245 -47.30859375 432.55688477 C-42.21542822 429 -42.21542822 429 -40 429 C-40.0037972 428.21144774 -40.00759441 427.42289549 -40.01150668 426.6104477 C-40.23537574 379.85558789 -40.40690991 333.10078647 -40.51065329 286.34549792 C-40.52316009 280.72927311 -40.53610334 275.11304937 -40.54931641 269.49682617 C-40.55325106 267.81972042 -40.55325106 267.81972042 -40.55726521 266.10873374 C-40.60075693 248.01430627 -40.67959062 229.9201971 -40.77152796 211.82595835 C-40.8651035 193.25416163 -40.92060048 174.68253141 -40.94088495 156.11050862 C-40.95459393 144.65398809 -40.99786196 133.19836727 -41.07916467 121.74212375 C-41.13209921 113.88193168 -41.14798435 106.02220349 -41.13501377 98.1618462 C-41.1286197 93.62909752 -41.1382914 89.09791882 -41.19205475 84.56545067 C-41.2410016 80.40850774 -41.24300497 76.25417818 -41.20898895 72.09711065 C-41.20479031 70.60020098 -41.21724728 69.10312303 -41.24883182 67.60654072 C-41.48561921 55.68537322 -37.75540652 49.53080552 -30 41 C-28.99297999 39.68568842 -27.9990772 38.36074655 -27.0390625 37.01171875 C-26.63655273 36.45895264 -26.23404297 35.90618652 -25.81933594 35.33666992 C-25.42520508 34.79244385 -25.03107422 34.24821777 -24.625 33.6875 C-20.71384485 28.31779224 -16.74956263 22.99164907 -12.75 17.6875 C-8.37265601 11.87745595 -4.10230592 6.0090115 0 0 Z " fill="#72B2D9" transform="translate(289,19)"/>
<path d="M0 0 C0 116.49 0 232.98 0 353 C-20.5716957 344.77132172 -41.69546604 319.33621092 -55 302 C-55.87255304 300.91469483 -56.74771347 299.83148253 -57.625 298.75 C-67.75449033 286.19758522 -76.29541444 272.96229981 -84.00097656 258.80249023 C-84.97917919 257.03756599 -86.00871997 255.30140833 -87.0390625 253.56640625 C-89.26694346 249.67716574 -90.90395387 245.61893306 -92.5 241.4375 C-92.80333252 240.64666016 -93.10666504 239.85582031 -93.41918945 239.04101562 C-96.02884772 232.12287367 -98.15819729 225.1616878 -100 218 C-100.37253906 216.81148437 -100.74507813 215.62296875 -101.12890625 214.3984375 C-108.57745732 188.90613846 -104.45216436 159.46444395 -99 134 C-98.79761719 133.04867187 -98.59523438 132.09734375 -98.38671875 131.1171875 C-97.13685031 125.35248817 -95.86699074 119.60097223 -94 114 C-93.34 114 -92.68 114 -92 114 C-91.91105469 113.00613281 -91.82210937 112.01226562 -91.73046875 110.98828125 C-91.09871363 106.60127666 -89.3601178 103.07966996 -87.3125 99.1875 C-86.94946777 98.48391357 -86.58643555 97.78032715 -86.21240234 97.05541992 C-75.20876043 75.92425314 -59.80659294 59.62044214 -42.98535156 42.96948242 C-41.51582417 41.51170113 -40.05009191 40.05009191 -38.58642578 38.58642578 C-35.97228382 35.97228382 -33.35003755 33.36649189 -30.7265625 30.76171875 C-29.21086753 29.2534077 -27.69565937 27.7446095 -26.18066406 26.2355957 C-25.1480389 25.2079943 -24.11451732 24.18129286 -23.08007812 23.15551758 C-17.6781572 17.79746575 -12.33275691 12.43667028 -7.40332031 6.63208008 C-1.70082274 0 -1.70082274 0 0 0 Z " fill="#1C83D0" transform="translate(219,93)"/>
<path d="M0 0 C3.84995812 3.07996649 6.29407961 5.36988632 9.25 9.125 C12.23639306 12.85304697 15.277863 16.47367524 18.5 20 C23.20716963 25.16881849 27.62249338 30.55113421 32 36 C32.6929589 36.75396026 33.3859178 37.50792051 34.09987545 38.28472805 C36.35563539 41.50820185 36.48458134 43.09363967 36.44496155 46.98731995 C36.44198563 48.78907433 36.44198563 48.78907433 36.43894958 50.62722778 C36.41663773 51.93690521 36.39432587 53.24658264 36.37133789 54.59594727 C36.36205864 55.99590457 36.35470244 57.39587573 36.34912109 58.79585266 C36.33398244 61.80745416 36.30718344 64.81864831 36.27189827 67.83008003 C36.21802508 72.60150158 36.20219075 77.37258088 36.19371033 82.14427185 C36.1646428 95.71192592 36.09992246 109.27893367 35.96264648 122.84594727 C35.88712224 130.34197382 35.85136638 137.83712929 35.85867494 145.33354419 C35.86072699 149.29531969 35.84230816 153.2546146 35.7740345 157.21585274 C34.56731176 175.3376911 34.56731176 175.3376911 40.91816616 191.44028378 C43.6617593 194.18274054 46.53978659 196.2698933 50 198 C50.24621094 197.4115757 50.49242187 196.8231514 50.74609375 196.21689606 C52.18971717 193.66458159 53.80508963 192.38425367 56.0625 190.52966309 C60.41732963 186.25047573 60.95044124 182.9893115 61.05882263 177.0085144 C61.02970543 175.28436813 61.02970543 175.28436813 61 173.52539062 C61.01092178 172.29527252 61.02184357 171.06515442 61.03309631 169.79776001 C61.05513694 166.44578109 61.04210235 163.09746912 61.0130806 159.74578285 C60.99110695 156.23564754 61.01450209 152.72581184 61.03295898 149.21569824 C61.06102842 142.57876387 61.04865712 135.94255403 61.02153492 129.3056407 C60.99262601 121.74564225 61.0091365 114.18595264 61.02934647 106.62595081 C61.06988349 91.08376243 61.05375908 75.54216571 61 60 C72.42947845 65.47569713 77.66917634 77.23990333 83.125 88 C83.44984375 88.64001953 83.7746875 89.28003906 84.109375 89.93945312 C88.65732738 99.10006453 91.71391342 108.01688086 93.6875 118.0625 C93.89955078 119.08666016 94.11160156 120.11082031 94.33007812 121.16601562 C95.27501522 125.83108364 96.09963434 130.44673713 96.58203125 135.18359375 C96.57320333 138.7818442 96.57320333 138.7818442 98 140 C99.27561957 148.94756009 99.22028089 157.9446937 99.24023438 166.96533203 C99.24990199 169.59830795 99.28098724 172.23048879 99.3125 174.86328125 C99.37974085 185.65040003 98.35726959 195.46917056 96 206 C95.67355755 207.72908215 95.35338736 209.45937564 95.04296875 211.19140625 C93.08639887 221.39126653 90.23213509 230.50660406 86 240 C85.67257812 240.77988281 85.34515625 241.55976563 85.0078125 242.36328125 C72.47619926 271.80702741 54.63368487 298.87612617 32.69140625 322.12109375 C30.61005535 324.34744442 28.63220887 326.59489673 26.6875 328.9375 C19.43788869 337.33556459 10.74717474 345.17951574 2 352 C1.34 352 0.68 352 0 352 C0 235.84 0 119.68 0 0 Z " fill="#1D83D1" transform="translate(362,94)"/>
<path d="M0 0 C0.66 0.33 1.32 0.66 2 1 C1.67 117.16 1.34 233.32 1 353 C7.5693001 347.6251181 13.98147442 342.37202831 20.125 336.5625 C20.81166748 335.91490723 21.49833496 335.26731445 22.20581055 334.60009766 C27.42631045 329.63342781 32.32771629 324.4882156 37 319 C37.845625 318.04222656 38.69125 317.08445312 39.5625 316.09765625 C55.86136026 297.48710845 69.36412564 276.29299193 80 254 C80.87215796 252.33184435 81.74679827 250.66498183 82.625 249 C87.93083462 238.3168717 91.40048096 227.16787834 94.12109375 215.59765625 C95.17356467 211.28954194 96.50936749 207.17377103 98 203 C98.33 203 98.66 203 99 203 C99.48968148 211.419801 98.15816834 218.51725191 95.75 226.5625 C95.44964844 227.62146484 95.14929688 228.68042969 94.83984375 229.77148438 C89.66623204 247.63695631 89.66623204 247.63695631 85 254 C84.34 254 83.68 254 83 254 C82.87625 254.7425 82.7525 255.485 82.625 256.25 C82.04513299 258.80141485 81.26291261 260.7267573 80 263 C79.34 263 78.68 263 78 263 C77.855625 263.763125 77.71125 264.52625 77.5625 265.3125 C77 268 77 268 76 271 C75.34 271 74.68 271 74 271 C74.16822266 272.20269531 74.16822266 272.20269531 74.33984375 273.4296875 C73.85006786 278.5751492 71.38075742 281.88133437 68.5625 286.125 C68.01843506 286.96450195 67.47437012 287.80400391 66.91381836 288.66894531 C62.54978908 295.33633679 57.87854469 301.70022638 53 308 C52.09649601 309.26539135 51.19942816 310.53543572 50.3125 311.8125 C38.9535231 327.46946815 20.30832056 351.42155583 2 359 C0 358 0 358 -1.10961902 355.8195346 C-2.0997294 352.68419082 -2.2484335 350.17327832 -2.24609566 346.8874464 C-2.25007775 345.65133592 -2.25405985 344.41522543 -2.25816262 343.14165705 C-2.25245691 341.77291933 -2.24656573 340.40418238 -2.24050903 339.03544617 C-2.24138121 337.5792004 -2.2431324 336.12295494 -2.24568737 334.66671115 C-2.2501626 330.66461376 -2.24215479 326.66262328 -2.23213124 322.66053951 C-2.2235016 318.34497701 -2.22641656 314.02942063 -2.22793579 309.71385193 C-2.22898495 302.23668169 -2.22270512 294.75954634 -2.21146011 287.28238487 C-2.19521227 276.47164323 -2.18999784 265.66091847 -2.18748413 254.85016594 C-2.1831059 237.31082698 -2.16979334 219.7715066 -2.15087891 202.23217773 C-2.13252341 185.1934417 -2.11836529 168.15471072 -2.10986328 151.1159668 C-2.10933783 150.06585797 -2.10881239 149.01574915 -2.10827102 147.93381884 C-2.10566096 142.66577896 -2.10313354 137.39773905 -2.10064721 132.12969911 C-2.07991074 88.41978653 -2.04468173 44.70989422 -2 1 C-1.34 0.67 -0.68 0.34 0 0 Z " fill="#F0EFEF" transform="translate(361,93)"/>
<path d="M0 0 C24 0 24 0 31 5 C33.42019622 8.97910078 33.30673522 13.13329179 33.30078125 17.6796875 C33.30506638 18.41067657 33.3093515 19.14166565 33.31376648 19.89480591 C33.31949029 21.43620777 33.32002444 22.97763662 33.31567383 24.51904297 C33.31251909 26.86082742 33.33597731 29.20134069 33.36132812 31.54296875 C33.36360206 33.04687342 33.36430417 34.55078146 33.36328125 36.0546875 C33.372491 36.74658173 33.38170074 37.43847595 33.39118958 38.15133667 C33.34375415 43.20832931 32.30770985 46.59151886 30 51 C20.75813627 57.9313978 12.80977415 55 0 55 C0 36.85 0 18.7 0 0 Z " fill="#1193F3" transform="translate(316,495)"/>
<path d="M0 0 C0.33 0 0.66 0 1 0 C1 44.22 1 88.44 1 134 C-14.60359117 118.39640883 -17.17159732 88.9447619 -17.4375 68.1875 C-17.26420922 44.57557431 -12.14263499 20.42581373 0 0 Z " fill="#F7F8F9" transform="translate(174,202)"/>
<path d="M0 0 C3.96 0 7.92 0 12 0 C12.02505615 1.28688721 12.0501123 2.57377441 12.07592773 3.8996582 C12.17001572 8.66880454 12.27023313 13.43780571 12.37231445 18.20678711 C12.41565803 20.27185676 12.45733352 22.33696212 12.49731445 24.40209961 C12.55503083 27.36843635 12.61872151 30.33459345 12.68359375 33.30078125 C12.70030624 34.2258699 12.71701874 35.15095856 12.73423767 36.1040802 C12.75418289 36.96474594 12.77412811 37.82541168 12.79467773 38.7121582 C12.81022202 39.46938675 12.8257663 40.2266153 12.84178162 41.00679016 C12.93632323 43.20924815 12.93632323 43.20924815 14 46 C15.65 46 17.3 46 19 46 C20.15291684 43.69416631 20.15397338 42.30133113 20.20532227 39.73388672 C20.22526749 38.85312469 20.24521271 37.97236267 20.26576233 37.06491089 C20.29083107 35.63672531 20.29083107 35.63672531 20.31640625 34.1796875 C20.33718735 33.20589142 20.35796844 32.23209534 20.37937927 31.22879028 C20.44488598 28.11093353 20.50376497 24.99299097 20.5625 21.875 C20.60568415 19.76431396 20.6492984 17.65363667 20.69335938 15.54296875 C20.80056853 10.36206764 20.90183283 5.18108001 21 0 C24.96 0 28.92 0 33 0 C33.12393074 6.56527885 33.21449756 13.12987145 33.2746582 19.69604492 C33.29974655 21.92793647 33.33382529 24.15974631 33.37719727 26.39135742 C33.43809729 29.6061625 33.46626727 32.81987801 33.48828125 36.03515625 C33.51408768 37.02709488 33.5398941 38.01903351 33.56648254 39.04103088 C33.5691576 45.70251657 32.49666829 49.02486604 28 54 C24.19034402 56.53977065 21.04164491 56.36753945 16.625 56.375 C15.86960937 56.39949219 15.11421875 56.42398438 14.3359375 56.44921875 C10.53379269 56.46916007 8.47228489 56.28337094 5.1484375 54.2890625 C-0.32051238 48.46214499 -0.41209577 43.94149319 -0.29296875 36.23046875 C-0.28872391 35.19432938 -0.28447906 34.15819 -0.28010559 33.09065247 C-0.26334605 29.78933458 -0.2256981 26.48863263 -0.1875 23.1875 C-0.17244967 20.94597237 -0.15876188 18.70443515 -0.14648438 16.46289062 C-0.11345131 10.97502398 -0.06168705 5.48761634 0 0 Z " fill="#1294F3" transform="translate(268,495)"/>
<path d="M0 0 C1.93166016 0.01740234 1.93166016 0.01740234 3.90234375 0.03515625 C5.19269531 0.04417969 6.48304688 0.05320312 7.8125 0.0625 C8.81152344 0.07410156 9.81054688 0.08570313 10.83984375 0.09765625 C12.09433612 4.66759273 13.03688958 9.15645553 13.71484375 13.84765625 C14.5526916 19.58624904 15.66143125 25.23480089 16.83984375 30.91015625 C18.63501053 39.6063743 19.90259549 48.26779109 20.83984375 57.09765625 C17.20984375 57.09765625 13.57984375 57.09765625 9.83984375 57.09765625 C8.70220024 52.83149309 7.83984375 49.53279314 7.83984375 45.09765625 C4.86984375 45.09765625 1.89984375 45.09765625 -1.16015625 45.09765625 C-1.49015625 49.05765625 -1.82015625 53.01765625 -2.16015625 57.09765625 C-6.12015625 57.09765625 -10.08015625 57.09765625 -14.16015625 57.09765625 C-10.16291254 32.74896357 -10.16291254 32.74896357 -7.8828125 20.875 C-7.35556465 18.11906126 -6.84249879 15.36264053 -6.34375 12.6015625 C-6.208479 11.8590625 -6.07320801 11.1165625 -5.93383789 10.3515625 C-5.6735946 8.92110091 -5.41614216 7.49012796 -5.16186523 6.05859375 C-4.07354962 0.12588225 -4.07354962 0.12588225 0 0 Z " fill="#1795F3" transform="translate(200.16015625,493.90234375)"/>
<path d="M0 0 C3.54500022 1.95876283 6.18254853 4.36509707 8 8 C8.13415472 10.6723621 8.04318541 13.32250488 8 16 C4.7 16 1.4 16 -2 16 C-2.2475 15.030625 -2.495 14.06125 -2.75 13.0625 C-3.1625 12.051875 -3.575 11.04125 -4 10 C-6.03243548 9.03122943 -6.03243548 9.03122943 -8 9 C-8.67843731 14.30845212 -8.67843731 14.30845212 -6.6875 19.1015625 C-3.79853122 22.44193266 -0.68691916 25.29977394 2.75 28.0625 C6.86876701 31.51485976 8.67520346 35.08140577 9.27734375 40.4921875 C9.46127263 45.45091011 9.34151589 49.08236068 6 53 C1.47587911 57.0717088 -1.796759 58.33090321 -7.9453125 58.20703125 C-12.75354875 57.72255117 -15.87393886 55.49812984 -18.875 51.875 C-21.72229839 47.62679442 -21.38354796 43.98612351 -21 39 C-15.555 38.505 -15.555 38.505 -10 38 C-9.67 40.64 -9.34 43.28 -9 46 C-7.35 46.33 -5.7 46.66 -4 47 C-3.28634753 41.74595873 -3.28634753 41.74595873 -5.3125 37.05957031 C-7.13626152 35.14930225 -9.02336783 33.37649453 -11 31.625 C-12.31625903 30.41292364 -13.62896407 29.19697254 -14.9375 27.9765625 C-15.52402344 27.45143066 -16.11054688 26.92629883 -16.71484375 26.38525391 C-18 25 -18 25 -18 23 C-18.66 23 -19.32 23 -20 23 C-21.73539754 17.79380738 -22.44011606 11.02424372 -20.0234375 5.94921875 C-14.70951381 -0.61983416 -7.97113719 -1.22792975 0 0 Z " fill="#1294F3" transform="translate(167,494)"/>
<path d="M0 0 C0.33 0 0.66 0 1 0 C1 123.42 1 246.84 1 374 C0.01 373.67 -0.98 373.34 -2 373 C-2 250.9 -2 128.8 -2 3 C-1.34 3 -0.68 3 0 3 C0 2.01 0 1.02 0 0 Z " fill="#E9ECED" transform="translate(248,74)"/>
<path d="M0 0 C3.63 0 7.26 0 11 0 C14.23581233 19.45557604 14.23581233 19.45557604 14.7890625 28.84765625 C14.87515484 31.04851143 14.87515484 31.04851143 16 33 C17.65 22.11 19.3 11.22 21 0 C24.63 0 28.26 0 32 0 C32.35840538 8.40261511 31.00954337 15.87722991 29.1875 24.0625 C28.6348228 26.62980092 28.08403415 29.19750913 27.53515625 31.765625 C27.26977051 33.00119141 27.00438477 34.23675781 26.73095703 35.50976562 C25.3071967 42.30805478 24.13047545 49.14773212 23 56 C18.71 56 14.42 56 10 56 C8.574594 51.62196729 7.71487343 47.37363188 7.0625 42.8125 C6.43338265 38.47307641 5.62717406 34.29931504 4.5 30.0625 C1.92640529 20.22304952 0.91897065 10.1086772 0 0 Z " fill="#1795F3" transform="translate(399,495)"/>
<path d="M0 0 C8.25 0 16.5 0 25 0 C25 2.97 25 5.94 25 9 C21.04 9 17.08 9 13 9 C13 13.62 13 18.24 13 23 C16.3 23 19.6 23 23 23 C23.09765625 29.15234375 23.09765625 29.15234375 23 31 C22 32 22 32 19.93359375 32.09765625 C16.46679688 32.04882812 16.46679688 32.04882812 13 32 C13 37.28 13 42.56 13 48 C17.29 48 21.58 48 26 48 C26 50.97 26 53.94 26 57 C17.42 57 8.84 57 0 57 C0 38.19 0 19.38 0 0 Z " fill="#219AF4" transform="translate(363,494)"/>
<path d="M0 0 C0.33 0 0.66 0 1 0 C1.04573474 45.06345895 1.08099747 90.12691546 1.10213066 135.19039302 C1.1046322 140.50534669 1.10722083 145.82030031 1.10986328 151.13525391 C1.1103879 152.19340691 1.11091252 153.25155992 1.11145304 154.34177817 C1.12016588 171.49612882 1.13594067 188.65046612 1.15430559 205.80480884 C1.17298023 223.39459069 1.18411155 240.98436553 1.18817699 258.57415688 C1.19092712 269.4361054 1.19962651 280.29801621 1.21583293 291.15995313 C1.22636978 298.59900743 1.22960815 306.03804211 1.22700275 313.47710334 C1.22571629 317.77499254 1.22774759 322.07281563 1.23841095 326.37069321 C1.24808892 330.29989784 1.24867075 334.22899143 1.24179779 338.15820099 C1.24094739 339.58487809 1.24353055 341.01156189 1.24976636 342.43822561 C1.25771238 344.36725281 1.252305 346.29632158 1.24609566 348.22535515 C1.24723482 349.83726795 1.24723482 349.83726795 1.24839699 351.48174465 C1 354 1 354 -1 356 C-4.125 356.125 -4.125 356.125 -7 356 C-7 355.34 -7 354.68 -7 354 C-8.65 353.34 -10.3 352.68 -12 352 C-12 351.34 -12 350.68 -12 350 C-13.0828125 349.6596875 -13.0828125 349.6596875 -14.1875 349.3125 C-17.5687862 347.73456644 -19.39742864 345.66453735 -22 343 C-23.68592214 341.74526993 -25.40273122 340.5642341 -27.15625 339.40625 C-31.64220358 335.98475998 -35.34098783 331.59759901 -39.125 327.4375 C-39.97320312 326.50808594 -40.82140625 325.57867187 -41.6953125 324.62109375 C-47 318.58813559 -47 318.58813559 -47 316 C-47.66 316 -48.32 316 -49 316 C-49 315.34 -49 314.68 -49 314 C-49.99 313.67 -50.98 313.34 -52 313 C-53.01351664 311.34151823 -54.01120795 309.67334039 -55 308 C-55.845625 307.175 -56.69125 306.35 -57.5625 305.5 C-59.97781863 303.02275012 -60.97543604 301.25997625 -62 298 C-62.66 298 -63.32 298 -64 298 C-64 297.34 -64 296.68 -64 296 C-64.66 296 -65.32 296 -66 296 C-67.4606285 293.35261084 -68 292.10551666 -68 289 C-68.66 289 -69.32 289 -70 289 C-73.07838264 286.59083098 -74.35762693 283.48183091 -76 280 C-77.07415595 277.91006614 -78.15057937 275.82135224 -79.23046875 273.734375 C-80 272 -80 272 -80 270 C-80.99 270 -81.98 270 -83 270 C-83.33 268.845 -83.66 267.69 -84 266.5 C-85.51983959 261.89726303 -87.59538756 257.72955572 -89.8125 253.4375 C-96.68054769 239.93303663 -100.95934959 228.28455428 -101 213 C-100.67 213 -100.34 213 -100 213 C-99.67128906 214.59714844 -99.67128906 214.59714844 -99.3359375 216.2265625 C-97.46792659 224.91341711 -95.13737512 232.76299133 -91.43359375 240.86328125 C-90.18700653 243.59082766 -89.10340715 246.31499744 -88.0625 249.125 C-85.6858633 255.12038393 -82.35533553 260.51007093 -79 266 C-78.34515625 267.08925781 -77.6903125 268.17851562 -77.015625 269.30078125 C-69.80346613 281.19525257 -61.73698288 292.19925602 -53 303 C-52.56123535 303.5460791 -52.1224707 304.0921582 -51.67041016 304.65478516 C-45.03772543 312.84839307 -37.80224185 320.39888614 -30.375 327.875 C-29.50439941 328.75486572 -28.63379883 329.63473145 -27.73681641 330.54125977 C-22.12581475 336.12527019 -16.28704861 341.19277581 -10 346 C-9.20126465 346.61149902 -8.4025293 347.22299805 -7.57958984 347.85302734 C-3.94569724 350.67202802 -3.94569724 350.67202802 0 353 C0 236.51 0 120.02 0 0 Z " fill="#B8CFE1" transform="translate(219,93)"/>
<path d="M0 0 C5.6530833 2.40725635 9.09078694 6.68941752 12 12 C13.0960979 17.1698914 13.01697247 22.20640467 12.90820312 27.45556641 C12.90594256 28.99396648 12.90722096 30.53237517 12.91174316 32.07077026 C12.91402554 36.21957547 12.86720991 40.3665059 12.8111515 44.5148778 C12.76091969 48.86027382 12.75642438 53.20571951 12.74694824 57.55136108 C12.7221476 65.76794411 12.65658713 73.98366899 12.57615232 82.19987524 C12.48653091 91.5589368 12.44269661 100.91804075 12.40258884 110.27742505 C12.31911384 129.51886778 12.17248646 148.75913511 12 168 C22.23 168 32.46 168 43 168 C43 116.85 43 65.7 43 13 C48.43910998 18.43910998 46.15492875 32.00484163 46.16113281 39.18286133 C46.16577155 40.58507413 46.17079759 41.9872857 46.17617798 43.38949585 C46.18918925 47.16804409 46.19572287 50.94657467 46.20018864 54.72514176 C46.20313343 57.08879914 46.20724045 59.45245181 46.21169281 61.8161068 C46.22532851 69.22124068 46.2350183 76.62636367 46.2388947 84.03150922 C46.24338731 92.56423479 46.26100708 101.09680113 46.2898953 109.62947828 C46.31150081 116.2411716 46.32159812 122.85282003 46.32293582 129.46454829 C46.32398325 133.40775659 46.32987963 137.35081438 46.34775543 141.29398537 C46.36422003 144.99673342 46.36639966 148.69921739 46.35761642 152.40198898 C46.3564783 154.40601775 46.3702019 156.41003771 46.3843689 158.41401672 C46.37879974 159.60966248 46.37323059 160.80530823 46.36749268 162.03718567 C46.36895924 163.07411969 46.3704258 164.11105371 46.3719368 165.17940998 C45.93838802 168.46723564 44.95338189 170.34111873 43 173 C39.4004494 175.01839739 36.44140373 175.21506718 32.3671875 175.046875 C31.31402344 175.00433594 30.26085937 174.96179688 29.17578125 174.91796875 C28.08652344 174.86253906 26.99726563 174.80710938 25.875 174.75 C24.77800781 174.71003906 23.68101562 174.67007813 22.55078125 174.62890625 C14.38745165 174.2583011 14.38745165 174.2583011 11 172 C10.63085651 169.30197716 10.63085651 169.30197716 10.63923645 165.79916382 C10.63667318 165.15633725 10.6341099 164.51351068 10.63146895 163.85120451 C10.62650976 161.68749805 10.64305803 159.52448249 10.65942383 157.36083984 C10.66026964 155.81376665 10.65979585 154.26669225 10.65809631 152.71961975 C10.65723315 148.51108995 10.67491055 144.30281502 10.69581819 140.09434462 C10.71453174 135.69943491 10.71633121 131.30451981 10.71989441 126.90957642 C10.72923057 118.58329256 10.75386552 110.25712643 10.78394288 101.93089449 C10.81743811 92.45341504 10.83396061 82.97593005 10.84902918 73.49840617 C10.88041376 53.99887063 10.93320468 34.49944477 11 15 C9.68 14.67 8.36 14.34 7 14 C7 13.34 7 12.68 7 12 C6.34 12 5.68 12 5 12 C3 9 3 9 3 6 C-1.79203841 8.3960192 -5.55009381 11.19289836 -8 16 C-8.88557427 21.55623883 -8.75906983 27.06237735 -8.68115234 32.67553711 C-8.67945867 34.38098083 -8.68041231 36.08642893 -8.68380737 37.79187012 C-8.6855258 42.40946255 -8.65030097 47.02611596 -8.60836363 51.64349055 C-8.57080391 56.47342438 -8.56732714 61.30338078 -8.56021118 66.13343811 C-8.54157772 75.27427331 -8.49236101 84.41467691 -8.43211424 93.55532223 C-8.36500241 103.96393162 -8.33204835 114.37256184 -8.30194163 124.7813338 C-8.23926065 146.18779658 -8.13375477 167.59387108 -8 189 C-8.66 189 -9.32 189 -10 189 C-10.23394358 166.12956674 -10.41011043 143.25933168 -10.51812172 120.38794327 C-10.56961396 109.76749851 -10.63977371 99.14779859 -10.75439453 88.52783203 C-10.8542892 79.26784779 -10.91863434 70.00840313 -10.94088495 60.747895 C-10.95388549 55.84739652 -10.98428027 50.94844121 -11.05730057 46.04843903 C-11.12558429 41.42850531 -11.14603678 36.81073812 -11.13107681 32.19034767 C-11.13381017 30.50208284 -11.15346657 28.81373961 -11.19205475 27.12591362 C-11.40964493 17.11066118 -10.50114507 10.86507632 -3.49951804 3.3688395 C-2.35924315 2.21926641 -1.18330627 1.10522911 0 0 Z " fill="#D5DEE3" transform="translate(289,61)"/>
<path d="M0 0 C0.99 0.495 0.99 0.495 2 1 C1.67 117.16 1.34 233.32 1 353 C7.5693001 347.6251181 13.98147442 342.37202831 20.125 336.5625 C20.81166748 335.91490723 21.49833496 335.26731445 22.20581055 334.60009766 C27.42631045 329.63342781 32.32771629 324.4882156 37 319 C37.845625 318.04222656 38.69125 317.08445312 39.5625 316.09765625 C55.86136026 297.48710845 69.36412564 276.29299193 80 254 C80.87215796 252.33184435 81.74679827 250.66498183 82.625 249 C87.93083462 238.3168717 91.40048096 227.16787834 94.12109375 215.59765625 C95.17356467 211.28954194 96.50936749 207.17377103 98 203 C98.33 203 98.66 203 99 203 C99.48968148 211.419801 98.15816834 218.51725191 95.75 226.5625 C95.44964844 227.62146484 95.14929688 228.68042969 94.83984375 229.77148438 C89.66623204 247.63695631 89.66623204 247.63695631 85 254 C84.34 254 83.68 254 83 254 C82.87625 254.7425 82.7525 255.485 82.625 256.25 C82.04513299 258.80141485 81.26291261 260.7267573 80 263 C79.34 263 78.68 263 78 263 C77.855625 263.763125 77.71125 264.52625 77.5625 265.3125 C77 268 77 268 76 271 C75.34 271 74.68 271 74 271 C74 271.99 74 272.98 74 274 C73.01 274 72.02 274 71 274 C70.90203125 274.88945312 70.8040625 275.77890625 70.703125 276.6953125 C69.95010322 280.23451487 68.90907925 282.01187317 66.75 284.875 C63.94429784 288.67738897 61.4102074 292.51343022 59.04296875 296.6015625 C58.69878906 297.06304687 58.35460937 297.52453125 58 298 C57.34 298 56.68 298 56 298 C55.72800781 298.7321875 55.45601563 299.464375 55.17578125 300.21875 C54.05093509 302.87951568 52.78777264 305.10170222 51.1875 307.5 C50.70667969 308.2321875 50.22585938 308.964375 49.73046875 309.71875 C47.69175475 312.40635491 45.40558938 314.63116268 43 317 C41.68808027 318.39679756 40.38264394 319.79969923 39.08203125 321.20703125 C38.38529297 321.95791016 37.68855469 322.70878906 36.97070312 323.48242188 C35.51674927 325.05216572 34.06629256 326.62515512 32.61914062 328.20117188 C31.57983398 329.31782227 31.57983398 329.31782227 30.51953125 330.45703125 C29.89151611 331.13741455 29.26350098 331.81779785 28.61645508 332.51879883 C27 334 27 334 25 334 C24.77054687 334.55816406 24.54109375 335.11632812 24.3046875 335.69140625 C22.64624479 338.62595608 20.55108478 340.60140353 18.125 342.9375 C15.53203949 345.44144843 13.10713753 347.86480264 10.8671875 350.69140625 C9 353 9 353 6 355 C3.375 355.1875 3.375 355.1875 1 355 C0 354 0 354 -0.1241985 351.60594314 C-0.12381878 350.53095489 -0.12343906 349.45596663 -0.12304783 348.34840298 C-0.12503888 347.11328989 -0.12702993 345.87817681 -0.12908131 344.60563606 C-0.12622772 343.21726935 -0.12328211 341.82890284 -0.12025452 340.4405365 C-0.12069009 338.97949392 -0.12156474 337.51845143 -0.12284368 336.05740935 C-0.12509138 332.02350169 -0.12106363 327.98962032 -0.11606562 323.95571601 C-0.11176522 319.61281639 -0.11320725 315.26991836 -0.1139679 310.92701721 C-0.11449339 303.39631229 -0.11134392 295.865616 -0.10573006 288.33491325 C-0.09761852 277.44665094 -0.09500019 266.55839282 -0.09374207 255.67012782 C-0.091551 238.00656396 -0.08488943 220.34300471 -0.07543945 202.67944336 C-0.06626675 185.51635766 -0.05918522 168.3532732 -0.05493164 151.19018555 C-0.05466892 150.13305184 -0.05440619 149.07591812 -0.05413551 147.98675006 C-0.05283051 142.68365948 -0.0515668 137.38056889 -0.05032361 132.07747829 C-0.03994929 88.051649 -0.02232949 44.02582474 0 0 Z " fill="#A3C1D7" transform="translate(361,93)"/>
<path d="M0 0 C17.54999972 -0.0233445 35.09999461 -0.04098682 52.65000629 -0.05181217 C60.7984958 -0.05697182 68.94697567 -0.06400825 77.09545898 -0.07543945 C84.19640124 -0.08539636 91.29733652 -0.09185584 98.39828557 -0.09408849 C102.15931925 -0.09539388 105.92033296 -0.09846893 109.68136024 -0.10573006 C113.87653114 -0.1137639 118.07166715 -0.11399048 122.2668457 -0.11352539 C123.51840958 -0.11712067 124.76997345 -0.12071594 126.0594635 -0.12442017 C127.19949829 -0.1230455 128.33953308 -0.12167084 129.51411438 -0.12025452 C130.50688542 -0.12117631 131.49965647 -0.1220981 132.52251148 -0.12304783 C135 0 135 0 138 1 C136.25 4.875 136.25 4.875 134 6 C132.27097123 6.09739601 130.53817885 6.13069061 128.80641174 6.13371277 C127.70574371 6.13797775 126.60507568 6.14224274 125.47105408 6.14663696 C124.25801102 6.14618378 123.04496796 6.14573059 121.79516602 6.14526367 C120.5219751 6.14862228 119.24878418 6.1519809 117.93701172 6.15544128 C114.43910161 6.16429088 110.94121594 6.16661979 107.44329572 6.16725707 C104.52570013 6.16820546 101.60811027 6.17188293 98.69051689 6.17542917 C91.80856756 6.18357729 84.92663133 6.18601307 78.04467773 6.18530273 C70.9396543 6.18470177 63.83470675 6.19525655 56.72970253 6.2110464 C50.63454536 6.22411056 44.53941302 6.22948711 38.44424194 6.22884732 C34.80170937 6.22859201 31.1592442 6.23146132 27.51672554 6.24202538 C23.45584019 6.25348086 19.39512549 6.24896646 15.33422852 6.24291992 C13.51770027 6.25134918 13.51770027 6.25134918 11.66447449 6.25994873 C10.56098663 6.25575424 9.45749878 6.25155975 8.3205719 6.24723816 C6.87955785 6.24805531 6.87955785 6.24805531 5.40943241 6.24888897 C3 6 3 6 0 4 C0 2.68 0 1.36 0 0 Z " fill="#E7E7E7" transform="translate(222,468)"/>
<path d="M0 0 C9.24 0 18.48 0 28 0 C28 2.64 28 5.28 28 8 C25.36 8 22.72 8 20 8 C20 23.51 20 39.02 20 55 C16.04 55 12.08 55 8 55 C8 39.49 8 23.98 8 8 C5.36 8 2.72 8 0 8 C0 5.36 0 2.72 0 0 Z " fill="#0F92F3" transform="translate(228,495)"/>
<path d="M0 0 C0.33 0 0.66 0 1 0 C1.0505939 6.51445205 1.08568856 13.02885368 1.10986328 19.54345703 C1.11993825 21.76092421 1.13359859 23.97837805 1.15087891 26.19580078 C1.17506163 29.37796312 1.18646797 32.55995024 1.1953125 35.7421875 C1.20563507 36.73805878 1.21595764 37.73393005 1.22659302 38.75997925 C1.22681961 40.14118454 1.22681961 40.14118454 1.22705078 41.55029297 C1.231492 42.3630368 1.23593323 43.17578064 1.24050903 44.01315308 C1 46 1 46 -1 48 C-3.0940094 48.27174377 -3.0940094 48.27174377 -5.70922852 48.30297852 C-7.17568565 48.32794151 -7.17568565 48.32794151 -8.67176819 48.35340881 C-10.25930153 48.36603004 -10.25930153 48.36603004 -11.87890625 48.37890625 C-12.96131088 48.39590073 -14.04371552 48.4128952 -15.15892029 48.43040466 C-18.62672048 48.4836785 -22.09450778 48.52390016 -25.5625 48.5625 C-29.0340013 48.60635206 -32.50540702 48.65299502 -35.97679138 48.70530701 C-38.14018111 48.73738983 -40.30365556 48.76423999 -42.46717834 48.78553772 C-43.92890724 48.80577248 -43.92890724 48.80577248 -45.42016602 48.82641602 C-46.28239273 48.83592789 -47.14461945 48.84543976 -48.03297424 48.85523987 C-50.00262344 48.78485623 -50.00262344 48.78485623 -51 50 C-51.10880464 51.89792981 -51.1468932 53.7999307 -51.15821838 55.70094299 C-51.17290161 57.55832596 -51.17290161 57.55832596 -51.18788147 59.45323181 C-51.19378642 60.83804283 -51.19959682 62.22285425 -51.20532227 63.60766602 C-51.21489543 65.05607384 -51.22490517 66.50447885 -51.23532104 67.95288086 C-51.2624371 71.89689271 -51.28341025 75.84091661 -51.30332303 79.78497052 C-51.32514141 83.90231875 -51.35255032 88.01962956 -51.37937927 92.13694763 C-51.42936244 99.93903149 -51.47428032 107.74113605 -51.51740164 115.54326051 C-51.56672606 124.42342961 -51.62166191 133.30356118 -51.67708123 142.18369401 C-51.79098757 160.45576118 -51.89780767 178.72786375 -52 197 C-52.33 197 -52.66 197 -53 197 C-53 146.18 -53 95.36 -53 43 C-35.51 43 -18.02 43 0 43 C0 28.81 0 14.62 0 0 Z " fill="#D8DDE1" transform="translate(332,250)"/>
<path d="M0 0 C2.00947005 4.0189401 2.25144285 5.55392502 2.25726891 9.88742161 C2.2637178 11.09879057 2.27016669 12.31015954 2.276811 13.55823666 C2.27386867 14.90426777 2.27073323 16.25029847 2.26742554 17.59632874 C2.27116116 19.02482625 2.27576233 20.45332173 2.28115618 21.88181394 C2.29341197 25.81195263 2.29312271 29.74200635 2.29076743 33.67215979 C2.29035993 37.908737 2.30139187 42.14528673 2.31088257 46.3818512 C2.32750643 54.6828736 2.33299269 62.98386761 2.33410732 71.28490526 C2.33505691 78.02916355 2.3391627 84.77341245 2.34550858 91.51766777 C2.36312286 110.62562778 2.37234687 129.7335653 2.37084763 148.84153349 C2.37076772 149.87198418 2.3706878 150.90243486 2.37060547 151.96411133 C2.37052371 152.9958151 2.37044195 154.02751888 2.37035771 155.0904864 C2.3695442 171.8236145 2.38869754 188.55665272 2.4168822 205.28975482 C2.44557279 222.45818077 2.45942469 239.62656282 2.45769465 256.79501337 C2.45702954 266.43914138 2.46257488 276.0831751 2.48405075 285.72728157 C2.50221205 293.93566176 2.50665149 302.1439049 2.4930319 310.35229642 C2.48647726 314.54306828 2.4864744 318.73357682 2.5037384 322.92432404 C2.51936437 326.75670947 2.51671425 330.5886205 2.49917014 334.42099362 C2.49607698 335.81122984 2.49981888 337.20150057 2.51089029 338.59169615 C2.52489342 340.47389026 2.51209973 342.35622782 2.49777794 344.23841953 C2.49821267 345.28617796 2.49864741 346.33393638 2.49909532 347.41344506 C2 350 2 350 -0.03111112 351.86009878 C-0.68084445 352.23626618 -1.33057778 352.61243358 -2 353 C-3.98 351.515 -3.98 351.515 -6 350 C-4.35 349.34 -2.7 348.68 -1 348 C-0.67 233.16 -0.34 118.32 0 0 Z " fill="#EEEEEF" transform="translate(220,99)"/>
<path d="M0 0 C0 0.66 0 1.32 0 2 C-0.61875 2.0825 -1.2375 2.165 -1.875 2.25 C-4.11681553 2.78570011 -4.11681553 2.78570011 -5 4.6875 C-5.33 5.450625 -5.66 6.21375 -6 7 C-6.670704 7.89048601 -7.341408 8.78097202 -8.03243637 9.69844246 C-10.32665503 13.54812478 -10.49423488 15.68996382 -10.48101807 20.13742065 C-10.48443577 20.83266755 -10.48785347 21.52791445 -10.49137473 22.24422944 C-10.49793559 24.56152097 -10.47600917 26.87764038 -10.45410156 29.19482422 C-10.45297269 30.86071241 -10.45360773 32.52660259 -10.45587158 34.19248962 C-10.4570181 38.70662818 -10.43351892 43.22034062 -10.40557575 47.73438025 C-10.38055173 52.45490699 -10.37821931 57.17544377 -10.37347412 61.89602661 C-10.36104729 70.83136944 -10.32822962 79.76651625 -10.28807616 88.70177281 C-10.24334937 98.87581402 -10.22136912 109.04986464 -10.20129442 119.22397971 C-10.15949671 140.14945348 -10.08614797 161.07465857 -10 182 C6.5 182 23 182 40 182 C40 182.33 40 182.66 40 183 C32.75513449 183.02526739 25.51028026 183.0428318 18.26538086 183.05493164 C15.79857967 183.05997356 13.33178148 183.06680691 10.86499023 183.07543945 C7.32795471 183.08751125 3.79095855 183.09322956 0.25390625 183.09765625 C-0.85649521 183.10281754 -1.96689667 183.10797882 -3.11094666 183.11329651 C-4.64242088 183.11340981 -4.64242088 183.11340981 -6.20483398 183.11352539 C-7.56051735 183.11685631 -7.56051735 183.11685631 -8.94358826 183.12025452 C-11 183 -11 183 -12 182 C-12.11678794 179.80803192 -12.1619763 177.61224783 -12.18081665 175.41725159 C-12.18802117 174.72108181 -12.19522568 174.02491204 -12.20264852 173.30764621 C-12.22550601 170.95714846 -12.24098429 168.60666141 -12.25634766 166.25610352 C-12.270789 164.57761877 -12.28554653 162.89913673 -12.30059814 161.22065735 C-12.43111659 145.86681453 -12.49678674 130.51223324 -12.54844093 115.15794468 C-12.58731658 103.80832571 -12.65558888 92.45970198 -12.76298869 81.11051995 C-12.83594255 73.13165711 -12.87429231 65.15306566 -12.88746679 57.1738829 C-12.89631958 52.40886829 -12.92046811 47.64508234 -12.98213577 42.88043404 C-13.03957555 38.3910522 -13.05400155 33.90352621 -13.03626251 29.41383171 C-13.03713771 27.77152577 -13.05327527 26.12914131 -13.08630753 24.48716736 C-13.23975399 16.4375764 -13.16578832 10.36622085 -7.62265015 3.94322205 C-3.6001499 0 -3.6001499 0 0 0 Z " fill="#EFF1F2" transform="translate(292,67)"/>
<path d="M0 0 C41.25 0 82.5 0 125 0 C125 0.99 125 1.98 125 3 C83.42 3 41.84 3 -1 3 C-0.67 2.01 -0.34 1.02 0 0 Z " fill="#C7C5C4" transform="translate(228,468)"/>
<path d="M0 0 C0.33 0 0.66 0 1 0 C1 116.49 1 232.98 1 353 C-0.32 352.67 -1.64 352.34 -3 352 C-3 351.34 -3 350.68 -3 350 C-2.01 350 -1.02 350 0 350 C-0.00249569 349.26190631 -0.00499138 348.52381262 -0.0075627 347.76335245 C-0.15519009 304.06540372 -0.29761789 260.36744071 -0.4332476 216.669453 C-0.44951955 211.42831685 -0.46583515 206.18718085 -0.48217773 200.94604492 C-0.48543066 199.90258268 -0.48868358 198.85912043 -0.49203508 197.78403812 C-0.5448832 180.8650374 -0.60127205 163.94605024 -0.6589582 147.0270654 C-0.71802468 129.68025103 -0.77331218 112.33342762 -0.82505554 94.98658985 C-0.85713125 84.27358229 -0.89219183 73.56059289 -0.93101191 62.84760761 C-0.95731246 55.51182852 -0.97995866 48.17604397 -0.99967117 40.84024424 C-1.01117191 36.60122367 -1.0243412 32.36222472 -1.04183006 28.12322426 C-1.05777858 24.24900645 -1.06917989 20.37480394 -1.07683109 16.50056111 C-1.08043803 15.09274083 -1.08577154 13.68492379 -1.09292836 12.27711708 C-1.10235095 10.37593198 -1.10510043 8.47471719 -1.10743046 6.57351017 C-1.11084794 5.51371073 -1.11426542 4.45391129 -1.11778647 3.36199671 C-1 1 -1 1 0 0 Z " fill="#2E8BD2" transform="translate(218,93)"/>
<path d="M0 0 C1.98 0 3.96 0 6 0 C8.51704805 2.51704805 8.24669599 4.07672899 8.27789307 7.51159668 C8.2738446 8.26058228 8.26979614 9.00956787 8.265625 9.78125 C8.26753845 10.55053833 8.2694519 11.31982666 8.27142334 12.11242676 C8.27278508 13.7398308 8.26908939 15.3672457 8.26074219 16.99462891 C8.25004221 19.49015631 8.26063751 21.98496382 8.2734375 24.48046875 C8.2721159 26.05989743 8.2695535 27.63932566 8.265625 29.21875 C8.26967346 29.9677356 8.27372192 30.71672119 8.27789307 31.48840332 C8.22992243 36.77007757 8.22992243 36.77007757 6 39 C4.02 39 2.04 39 0 39 C0 26.13 0 13.26 0 0 Z " fill="#EEF7FD" transform="translate(328,503)"/>
<path d="M0 0 C0.33 0 0.66 0 1 0 C1.07002363 20.28803835 1.12295553 40.57605223 1.15543652 60.86418629 C1.17091761 70.28392891 1.19203081 79.70359653 1.22631836 89.12329102 C1.25618274 97.33172568 1.27556596 105.54010603 1.28226548 113.74859351 C1.28618278 118.09654599 1.29541462 122.44434309 1.31719017 126.79224586 C1.33750863 130.88223922 1.34384327 134.97201274 1.33932304 139.06205177 C1.34015033 140.56531976 1.34614366 142.06859487 1.35761642 143.57181931 C1.3724862 145.62011689 1.36717894 147.66853166 1.36076355 149.71687317 C1.36352893 150.86450543 1.36629431 152.0121377 1.36914349 153.1945467 C1 156 1 156 -0.36080456 157.87041759 C-2.79162894 159.5455177 -4.73093304 159.35512506 -7.65625 159.328125 C-8.76097656 159.32296875 -9.86570312 159.3178125 -11.00390625 159.3125 C-12.15761719 159.291875 -13.31132812 159.27125 -14.5 159.25 C-15.65371094 159.24484375 -16.80742187 159.2396875 -17.99609375 159.234375 C-26.53603316 159.15465561 -26.53603316 159.15465561 -30 158 C-30 157.01 -30 156.02 -30 155 C-20.1 155 -10.2 155 0 155 C0 103.85 0 52.7 0 0 Z " fill="#B3CEDF" transform="translate(332,74)"/>
<path d="M0 0 C0.33 0 0.66 0 1 0 C2.01812927 8.06955257 2.15410929 16.05673621 2.16113281 24.18286133 C2.16577155 25.58507413 2.17079759 26.9872857 2.17617798 28.38949585 C2.18918925 32.16804409 2.19572287 35.94657467 2.20018864 39.72514176 C2.20313343 42.08879914 2.20724045 44.45245181 2.21169281 46.8161068 C2.22532851 54.22124068 2.2350183 61.62636367 2.2388947 69.03150922 C2.24338731 77.56423479 2.26100708 86.09680113 2.2898953 94.62947828 C2.31150081 101.2411716 2.32159812 107.85282003 2.32293582 114.46454829 C2.32398325 118.40775659 2.32987963 122.35081438 2.34775543 126.29398537 C2.36422003 129.99673342 2.36639966 133.69921739 2.35761642 137.40198898 C2.3564783 139.40601775 2.3702019 141.41003771 2.3843689 143.41401672 C2.37879974 144.60966248 2.37323059 145.80530823 2.36749268 147.03718567 C2.36895924 148.07411969 2.3704258 149.11105371 2.3719368 150.17940998 C1.93838802 153.46723564 0.95338189 155.34111873 -1 158 C-4.5995506 160.01839739 -7.55859627 160.21506718 -11.6328125 160.046875 C-12.68597656 160.00433594 -13.73914063 159.96179688 -14.82421875 159.91796875 C-15.91347656 159.86253906 -17.00273437 159.80710938 -18.125 159.75 C-19.22199219 159.71003906 -20.31898438 159.67007813 -21.44921875 159.62890625 C-29.61254835 159.2583011 -29.61254835 159.2583011 -33 157 C-33.1875 154.375 -33.1875 154.375 -33 152 C-32.34 152.33 -31.68 152.66 -31 153 C-31 153.99 -31 154.98 -31 156 C-21.1 156 -11.2 156 -1 156 C-0.67 104.52 -0.34 53.04 0 0 Z " fill="#EBEBEB" transform="translate(333,76)"/>
<path d="M0 0 C0.33 0 0.66 0 1 0 C1.21914062 1.06476563 1.43828125 2.12953125 1.6640625 3.2265625 C3.53207341 11.91341711 5.86262488 19.76299133 9.56640625 27.86328125 C10.81299347 30.59082766 11.89659285 33.31499744 12.9375 36.125 C15.79927184 43.34420221 20.02194318 49.84135908 24.125 56.40625 C24.47916992 56.97496826 24.83333984 57.54368652 25.19824219 58.12963867 C26.19342719 59.72198088 27.19800031 61.30844448 28.203125 62.89453125 C33 71.18478261 33 71.18478261 33 76 C31 76 31 76 29.5625 74.875 C27.52621767 72.43146121 26.35782852 69.87859647 25 67 C23.92584405 64.91006614 22.84942063 62.82135224 21.76953125 60.734375 C21 59 21 59 21 57 C20.01 57 19.02 57 18 57 C17.67 55.845 17.34 54.69 17 53.5 C15.48016041 48.89726303 13.40461244 44.72955572 11.1875 40.4375 C4.31945231 26.93303663 0.04065041 15.28455428 0 0 Z " fill="#D2D6D9" transform="translate(118,306)"/>
<path d="M0 0 C2.87366476 2.67103455 5.15181181 5.75071179 7.5 8.875 C12.76050276 15.79403462 18.31562007 22.42574568 24 29 C24.5153833 29.60440918 25.0307666 30.20881836 25.56176758 30.83154297 C30.25441391 36.28356331 35.22923047 41.41264752 40.3125 46.5 C41.49875977 47.70462891 41.49875977 47.70462891 42.70898438 48.93359375 C47.48186899 53.71811009 52.40271436 58.07475038 57.76245117 62.19335938 C60.00201128 64.00162395 62.00242033 65.93025303 64 68 C63.01 68.495 63.01 68.495 62 69 C56.7552432 66.3776216 52.44753084 62.48199586 48.375 58.3125 C46.23725095 55.98521244 46.23725095 55.98521244 44.03125 55.0546875 C41.7796651 53.88559534 40.72318046 52.76919121 39.125 50.8125 C35.43136865 46.44803407 31.58116935 42.24787264 27.6875 38.0625 C26.75284912 37.04990112 26.75284912 37.04990112 25.79931641 36.0168457 C25.20940918 35.38351318 24.61950195 34.75018066 24.01171875 34.09765625 C23.48022217 33.52539307 22.94872559 32.95312988 22.40112305 32.36352539 C21.02436427 30.8858079 21.02436427 30.8858079 19 30 C17.9935725 28.33720673 16.99414593 26.67016516 16 25 C15.1646875 24.2265625 15.1646875 24.2265625 14.3125 23.4375 C13 22 13 22 13 18 C12.41476563 17.75636719 11.82953125 17.51273437 11.2265625 17.26171875 C6.11689004 14.36623769 2.1540682 8.54806415 0.5625 2.9375 C0.376875 1.968125 0.19125 0.99875 0 0 Z " fill="#BEC5CB" transform="translate(149,375)"/>
<path d="M0 0 C2.37233447 2.28447023 4.55135407 4.63390042 6.625 7.1875 C8.69169295 10.01036127 8.69169295 10.01036127 11 11 C11.28875 11.763125 11.5775 12.52625 11.875 13.3125 C12.85004874 16.11866533 12.85004874 16.11866533 15.125 18.125 C17 20 17 20 17 23 C17.58193115 23.25144775 18.1638623 23.50289551 18.76342773 23.76196289 C21.28299941 25.15665211 22.83406766 26.69539246 24.78515625 28.80859375 C25.48060547 29.55560547 26.17605469 30.30261719 26.89257812 31.07226562 C27.60865234 31.85279297 28.32472656 32.63332031 29.0625 33.4375 C30.49060996 34.97811997 31.91898508 36.51849419 33.34765625 38.05859375 C33.97679932 38.74236084 34.60594238 39.42612793 35.25415039 40.13061523 C36.37464128 41.33039131 37.53101289 42.49815745 38.72827148 43.62133789 C40 45 40 45 40 47 C40.556875 47.0825 41.11375 47.165 41.6875 47.25 C47.32302862 49.07773901 51.72826854 54.34964663 55.5 58.75 C57.5327485 60.44395709 59.41794457 60.65107359 62 61 C62.495 63.97 62.495 63.97 63 67 C62.34 67 61.68 67 61 67 C61 66.34 61 65.68 61 65 C59.35 64.34 57.7 63.68 56 63 C56 62.34 56 61.68 56 61 C55.278125 60.773125 54.55625 60.54625 53.8125 60.3125 C50.4312138 58.73456644 48.60257136 56.66453735 46 54 C44.31407786 52.74526993 42.59726878 51.5642341 40.84375 50.40625 C36.35779642 46.98475998 32.65901217 42.59759901 28.875 38.4375 C28.02679688 37.50808594 27.17859375 36.57867187 26.3046875 35.62109375 C21 29.58813559 21 29.58813559 21 27 C20.34 27 19.68 27 19 27 C19 26.34 19 25.68 19 25 C18.01 24.67 17.02 24.34 16 24 C14.98648336 22.34151823 13.98879205 20.67334039 13 19 C12.154375 18.175 11.30875 17.35 10.4375 16.5 C8.02218137 14.02275012 7.02456396 12.25997625 6 9 C5.34 9 4.68 9 4 9 C4 8.34 4 7.68 4 7 C3.34 7 2.68 7 2 7 C0.5393715 4.35261084 0 3.10551666 0 0 Z " fill="#E3E3E3" transform="translate(151,382)"/>
<path d="M0 0 C0.99 0 1.98 0 3 0 C2.43111057 4.17719306 1.05151318 6.86169435 -1.28125 10.3515625 C-2.29832031 11.87716797 -2.29832031 11.87716797 -3.3359375 13.43359375 C-4.05007813 14.48675781 -4.76421875 15.53992188 -5.5 16.625 C-6.18320312 17.65496094 -6.86640625 18.68492187 -7.5703125 19.74609375 C-11.77630135 26.00781872 -16.24138982 31.89672272 -21.13476562 37.63818359 C-22.78406682 39.72657886 -23.8631918 41.61764819 -25 44 C-30.42801165 50.02327687 -36.46573336 56.16336146 -43 61 C-43.66 61 -44.32 61 -45 61 C-45.21398437 61.54140625 -45.42796875 62.0828125 -45.6484375 62.640625 C-47.48077943 65.8392797 -49.99796606 68.20964484 -52.625 70.75 C-53.140625 71.25660156 -53.65625 71.76320313 -54.1875 72.28515625 C-55.45383339 73.52803902 -56.7263144 74.76465276 -58 76 C-58 73 -58 73 -55.76953125 70.4765625 C-54.79134265 69.51833693 -53.80529119 68.56808791 -52.8125 67.625 C-52.32974609 67.15578125 -51.84699219 66.6865625 -51.34960938 66.203125 C-50.37415609 65.25516772 -49.39642407 64.30955 -48.41650391 63.36621094 C-43.77906658 58.89342581 -39.37775296 54.22385736 -35 49.5 C-33.79255413 48.19709366 -32.58423699 46.89499415 -31.375 45.59375 C-30.79854736 44.97266357 -30.22209473 44.35157715 -29.62817383 43.71166992 C-28.23781367 42.25000925 -26.78650329 40.84673525 -25.32421875 39.45703125 C-22.64550323 36.62524627 -20.73507216 33.54919051 -18.8125 30.1875 C-17.59801321 28.06729425 -16.35287506 26.03976527 -15 24 C-14.34 24 -13.68 24 -13 24 C-12.7628125 23.30777344 -12.525625 22.61554688 -12.28125 21.90234375 C-10.49068589 17.84627933 -7.89376765 14.45276955 -5.27734375 10.90429688 C-2.75562225 7.38803505 -1.15677393 4.16815825 0 0 Z " fill="#E8E8E8" transform="translate(432,367)"/>
<path d="M0 0 C0.33 0 0.66 0 1 0 C1 44.22 1 88.44 1 134 C-1 132 -1 132 -1.24609566 129.87981987 C-1.24425207 128.99674219 -1.24240849 128.11366451 -1.24050903 127.2038269 C-1.24325836 126.19137909 -1.24600769 125.17893127 -1.24884033 124.13580322 C-1.24164978 123.02090515 -1.23445923 121.90600708 -1.22705078 120.75732422 C-1.22734283 119.5866037 -1.22763489 118.41588318 -1.22793579 117.20968628 C-1.22677919 113.99496203 -1.21673198 110.78041071 -1.20278788 107.56572104 C-1.19030592 104.20781292 -1.18911203 100.84990161 -1.18673706 97.49197388 C-1.18051481 91.13129983 -1.16409398 84.77069434 -1.14403808 78.41005051 C-1.1217022 71.16952276 -1.11069148 63.92899179 -1.10064721 56.68843818 C-1.07972836 41.79225389 -1.04453797 26.89613379 -1 12 C-1.6496875 12.99 -1.6496875 12.99 -2.3125 14 C-2.869375 14.66 -3.42625 15.32 -4 16 C-4.99 16 -5.98 16 -7 16 C-5.26017005 10.18738629 -3.1889511 5.16830006 0 0 Z " fill="#CDD9E2" transform="translate(174,202)"/>
<path d="M0 0 C0.33 0 0.66 0 1 0 C1.48968148 8.419801 0.15816834 15.51725191 -2.25 23.5625 C-2.55035156 24.62146484 -2.85070312 25.68042969 -3.16015625 26.77148438 C-8.33376796 44.63695631 -8.33376796 44.63695631 -13 51 C-13.66 51 -14.32 51 -15 51 C-15.33 51.66 -15.66 52.32 -16 53 C-16.21072449 48.71733456 -15.82959467 45.99219842 -13.875 42.1875 C-8.08446706 30.04870574 -4.42629008 17.59005898 -1.76171875 4.4375 C-1 1 -1 1 0 0 Z " fill="#E8E8E9" transform="translate(459,296)"/>
<path d="M0 0 C7.92 0 15.84 0 24 0 C24 0.33 24 0.66 24 1 C16.74 1 9.48 1 2 1 C2 18.16 2 35.32 2 53 C9.26 53 16.52 53 24 53 C24 53.66 24 54.32 24 55 C16.08 55 8.16 55 0 55 C0 36.85 0 18.7 0 0 Z " fill="#0F91F3" transform="translate(364,495)"/>
<path d="M0 0 C17.16 0 34.32 0 52 0 C52 0.99 52 1.98 52 3 C51.37803741 3.01030746 50.75607483 3.02061493 50.11526489 3.03123474 C43.65925291 3.13916535 37.20338431 3.25377404 30.74755859 3.37231445 C28.33613069 3.4157065 25.92467121 3.45737837 23.51318359 3.49731445 C20.05296294 3.55491369 16.59290188 3.61863779 13.1328125 3.68359375 C11.50776291 3.70866249 11.50776291 3.70866249 9.84988403 3.73423767 C8.34855423 3.7641555 8.34855423 3.7641555 6.81689453 3.79467773 C5.93309113 3.81022202 5.04928772 3.8257663 4.13870239 3.84178162 C1.9480278 3.86765001 1.9480278 3.86765001 0 5 C0 3.35 0 1.7 0 0 Z " fill="#C8C7C5" transform="translate(279,293)"/>
<path d="M0 0 C1.98 0 3.96 0 6 0 C5.67 0.99 5.34 1.98 5 3 C46.58 2.67 88.16 2.34 131 2 C131 1.34 131 0.68 131 0 C131.99 0.33 132.98 0.66 134 1 C133.67 1.99 133.34 2.98 133 4 C89.11 4 45.22 4 0 4 C0 2.68 0 1.36 0 0 Z " fill="#D5D5D5" transform="translate(222,468)"/>
<path d="M0 0 C0.33 0 0.66 0 1 0 C1.01981934 0.98282959 1.03963867 1.96565918 1.06005859 2.97827148 C1.13676434 6.66308009 1.22537512 10.34752679 1.31738281 14.03198242 C1.35540657 15.61947426 1.39030321 17.20704448 1.421875 18.79467773 C1.57788347 30.02197289 1.57788347 30.02197289 3.53662109 41.04272461 C4.39410154 44.66465334 4.469043 48.35527223 4.625 52.0625 C4.66367188 52.83271484 4.70234375 53.60292969 4.7421875 54.39648438 C4.83498305 56.26399477 4.91850124 58.13196252 5 60 C3 59 3 59 2.40454102 57.27856445 C1.22352043 51.59758773 0.4643029 45.96400837 -0.0625 40.1875 C-0.21739081 38.53490466 -0.37485028 36.8825476 -0.53515625 35.23046875 C-0.63389038 34.15381958 -0.63389038 34.15381958 -0.73461914 33.05541992 C-0.95636273 30.99338563 -0.95636273 30.99338563 -1.52294922 29.00610352 C-2.04182894 26.82410012 -2.11366036 24.91245055 -2.09765625 22.671875 C-2.09282227 21.47304688 -2.09282227 21.47304688 -2.08789062 20.25 C-2.07951172 19.425 -2.07113281 18.6 -2.0625 17.75 C-2.05798828 16.90953125 -2.05347656 16.0690625 -2.04882812 15.203125 C-2.03707961 13.13538599 -2.01914522 11.06768376 -2 9 C-1.34 9 -0.68 9 0 9 C0 6.03 0 3.06 0 0 Z " fill="#E8E9E9" transform="translate(114,259)"/>
<path d="M0 0 C0.33 0 0.66 0 1 0 C1 39.93 1 79.86 1 121 C0.01 121.495 0.01 121.495 -1 122 C-1.33 121.01 -1.66 120.02 -2 119 C-1.505 118.505 -1.505 118.505 -1 118 C-0.89205032 116.4695654 -0.85317012 114.9342039 -0.84178162 113.40000916 C-0.8319928 112.40576431 -0.82220398 111.41151947 -0.81211853 110.387146 C-0.80348534 108.73745819 -0.80348534 108.73745819 -0.79467773 107.05444336 C-0.78477814 105.90337601 -0.77487854 104.75230865 -0.76467896 103.56636047 C-0.73295338 99.74087621 -0.70826297 95.9153795 -0.68359375 92.08984375 C-0.66303376 89.44568041 -0.64203756 86.80152043 -0.62062073 84.15736389 C-0.57064394 77.89587961 -0.52572369 71.63436955 -0.48259836 65.37283474 C-0.4332685 58.24595156 -0.37833466 51.11911508 -0.32291877 43.99227703 C-0.20902223 29.32822888 -0.10219997 14.66413427 0 0 Z " fill="#E1E5EA" transform="translate(422,159)"/>
<path d="M0 0 C2.14373046 3.2155957 2.21182738 3.95751967 2.0625 7.625 C2.00825747 9.08247312 1.97966458 10.54165964 2 12 C2.33 12.33 2.66 12.66 3 13 C3.25831761 16.178392 3.18998491 19.37490926 3.1875 22.5625 C3.18741943 23.50746338 3.18733887 24.45242676 3.18725586 25.42602539 C3.10413372 35.79879386 1.73186648 45.78042752 0 56 C-0.33 56 -0.66 56 -1 56 C-1.20033619 54.66853485 -1.38440017 53.33462147 -1.5625 52 C-1.66691406 51.2575 -1.77132813 50.515 -1.87890625 49.75 C-2 47 -2 47 -1.52734375 43.41015625 C-0.93034674 38.83457622 -0.77849698 34.29729777 -0.68359375 29.6875 C-0.66281265 28.83317383 -0.64203156 27.97884766 -0.62062073 27.09863281 C-0.55581401 24.39916158 -0.49656435 21.69960235 -0.4375 19 C-0.39424908 17.15754339 -0.35063282 15.31509531 -0.30664062 13.47265625 C-0.20020443 8.98185846 -0.09874807 4.49097316 0 0 Z " fill="#F3F1EF" transform="translate(461,245)"/>
<path d="M0 0 C0.33 0.66 0.66 1.32 1 2 C-0.78478558 4.30319433 -1.65159121 4.95201162 -4.58789062 5.35644531 C-6.10672852 5.34242676 -6.10672852 5.34242676 -7.65625 5.328125 C-8.76097656 5.32296875 -9.86570312 5.3178125 -11.00390625 5.3125 C-12.15761719 5.291875 -13.31132812 5.27125 -14.5 5.25 C-15.65371094 5.24484375 -16.80742187 5.2396875 -17.99609375 5.234375 C-26.53603316 5.15465561 -26.53603316 5.15465561 -30 4 C-30 3.01 -30 2.02 -30 1 C-15.15 0.505 -15.15 0.505 0 0 Z " fill="#CACBCB" transform="translate(332,228)"/>
<path d="M0 0 C3.87215401 1.45823672 4.93777277 3.23104277 6.625 6.9375 C7.96103197 9.82656276 9.2269032 12.34035479 11 15 C9.68 14.67 8.36 14.34 7 14 C7 13.34 7 12.68 7 12 C6.34 12 5.68 12 5 12 C3 9 3 9 3 6 C-2.84847908 8.92423954 -6.4391737 13.65876054 -10 19 C-10.45124682 14.52701591 -10.33072417 12.5002203 -7.8125 8.69140625 C-6.89228332 7.63315707 -5.9542065 6.59020619 -5 5.5625 C-4.52304687 5.02173828 -4.04609375 4.48097656 -3.5546875 3.92382812 C-2.38509226 2.6021855 -1.19457907 1.29910474 0 0 Z " fill="#D7D7D7" transform="translate(289,61)"/>
<path d="M0 0 C0 3 0 3 -2.375 5.4375 C-3.674375 6.7059375 -3.674375 6.7059375 -5 8 C-5.30164063 8.63550781 -5.60328125 9.27101563 -5.9140625 9.92578125 C-7.23981552 12.45806489 -8.83895055 13.89086187 -11 15.75 C-11.70125 16.36359375 -12.4025 16.9771875 -13.125 17.609375 C-15 19 -15 19 -17 19 C-17.32097656 19.81210937 -17.32097656 19.81210937 -17.6484375 20.640625 C-19.48077943 23.8392797 -21.99796606 26.20964484 -24.625 28.75 C-25.140625 29.25660156 -25.65625 29.76320313 -26.1875 30.28515625 C-27.45383339 31.52803902 -28.7263144 32.76465276 -30 34 C-30 31 -30 31 -27.76953125 28.4765625 C-26.79134265 27.51833693 -25.80529119 26.56808791 -24.8125 25.625 C-24.08836914 24.92117188 -24.08836914 24.92117188 -23.34960938 24.203125 C-22.37374347 23.25476673 -21.39560279 22.30874401 -20.4152832 21.36499023 C-15.67292298 16.79115273 -11.17075141 12.01242041 -6.6875 7.1875 C-6.04232422 6.49462891 -5.39714844 5.80175781 -4.73242188 5.08789062 C-3.15412839 3.39268651 -1.57667698 1.69670746 0 0 Z " fill="#DEDEDD" transform="translate(404,409)"/>
<path d="M0 0 C0.91145054 2.97022221 1.01801972 5.06485586 0.44140625 8.109375 C0.30283203 8.86347656 0.16425781 9.61757812 0.02148438 10.39453125 C-0.12998047 11.17183594 -0.28144531 11.94914063 -0.4375 12.75 C-0.58509766 13.54277344 -0.73269531 14.33554688 -0.88476562 15.15234375 C-1.24903966 17.10297246 -1.62352512 19.0516893 -2 21 C-2.99 21.33 -3.98 21.66 -5 22 C-5.33 24.31 -5.66 26.62 -6 29 C-7.6254392 24.94682149 -6.3372922 21.33978539 -5.25 17.3125 C-5.0653418 16.60222656 -4.88068359 15.89195312 -4.69042969 15.16015625 C-3.33511185 10.02914295 -1.78540698 4.99913954 0 0 Z " fill="#C8D4DD" transform="translate(166,219)"/>
<path d="M0 0 C0.33 0 0.66 0 1 0 C1.24234375 1.12277344 1.4846875 2.24554688 1.734375 3.40234375 C3.50832909 11.39271817 5.48205786 18.57323327 9 26 C8.67 26.66 8.34 27.32 8 28 C3.46911973 24.25030599 1.44107861 19.82655043 0.77734375 14.06835938 C0.37674398 9.38475139 0.16531145 4.69712529 0 0 Z " fill="#CCD6DD" transform="translate(118,306)"/>
<path d="M0 0 C0.33 0 0.66 0 1 0 C1.1132812 10.39669641 0.91987611 20.63496744 0 31 C-1.66674321 28.08175756 -2.2432008 26.02405621 -2.1953125 22.671875 C-2.18886719 21.87265625 -2.18242188 21.0734375 -2.17578125 20.25 C-2.15902344 19.425 -2.14226562 18.6 -2.125 17.75 C-2.11597656 16.90953125 -2.10695313 16.0690625 -2.09765625 15.203125 C-2.07415817 13.13529396 -2.03828908 11.06761005 -2 9 C-1.34 9 -0.68 9 0 9 C0 6.03 0 3.06 0 0 Z " fill="#F4F3F2" transform="translate(114,259)"/>
<path d="M0 0 C1.05078125 1.8359375 1.05078125 1.8359375 2 4 C1.22283171 6.51085141 0.17153984 8.65692033 -1 11 C-1.66 11 -2.32 11 -3 11 C-3.144375 11.763125 -3.28875 12.52625 -3.4375 13.3125 C-4 16 -4 16 -5 19 C-5.66 19 -6.32 19 -7 19 C-7.33 19.99 -7.66 20.98 -8 22 C-8.58315454 16.22312532 -6.64333685 12.56339621 -4 7.625 C-3.6184375 6.88894531 -3.236875 6.15289062 -2.84375 5.39453125 C-1.90668265 3.5906766 -0.95480793 1.79452741 0 0 Z " fill="#C0CCD5" transform="translate(442,345)"/>
<path d="M0 0 C0.33 0 0.66 0 1 0 C1.86027226 9.67328365 1.86027226 9.67328365 -1.3125 13.625 C-4 16 -4 16 -7 16 C-5.26017005 10.18738629 -3.1889511 5.16830006 0 0 Z " fill="#BFCAD3" transform="translate(174,202)"/>
<path d="M0 0 C0.33 0.66 0.66 1.32 1 2 C-0.97233721 6.05424872 -3.65901948 9.00168415 -7 12 C-7.66 12 -8.32 12 -9 12 C-9.226875 12.598125 -9.45375 13.19625 -9.6875 13.8125 C-11.3611297 16.60188284 -13.08817726 17.6168842 -16 19 C-16.66 18.67 -17.32 18.34 -18 18 C-17.3709375 17.45472656 -16.741875 16.90945313 -16.09375 16.34765625 C-10.28489688 11.22991668 -5.00081304 5.90878189 0 0 Z " fill="#BCC3C9" transform="translate(395,415)"/>
<path d="M0 0 C0.66 0 1.32 0 2 0 C2.33 5.61 2.66 11.22 3 17 C1.68 17 0.36 17 -1 17 C-1.10477512 11.21408489 -0.99250545 5.70690634 0 0 Z " fill="#EFF7FD" transform="translate(203,514)"/>
<path d="M0 0 C0.66 0 1.32 0 2 0 C1.566875 1.85625 1.566875 1.85625 1.125 3.75 C-0.62780838 12.38884131 -1.20613093 21.23170339 -2 30 C-2.33 30 -2.66 30 -3 30 C-3.31375831 19.54138951 -3.31697334 10.06938335 0 0 Z " fill="#E8E7E8" transform="translate(161,241)"/>
<path d="M0 0 C1.32 0.66 2.64 1.32 4 2 C4 2.99 4 3.98 4 5 C2.8553125 5.1546875 2.8553125 5.1546875 1.6875 5.3125 C-1.21894395 6.05600892 -2.03566029 6.84858032 -4 9 C-4.66 9 -5.32 9 -6 9 C-6.103125 9.61875 -6.20625 10.2375 -6.3125 10.875 C-7 13 -7 13 -10 15 C-9.45230629 10.81761166 -7.10111111 8.40131455 -4.4375 5.25 C-3.19806641 3.77273437 -3.19806641 3.77273437 -1.93359375 2.265625 C-1.29550781 1.51796875 -0.65742188 0.7703125 0 0 Z " fill="#BCC4C9" transform="translate(289,61)"/>
<path d="M0 0 C1.02886361 3.40759626 1.16568934 6.5742238 1.1875 10.125 C1.20167969 11.17945313 1.21585938 12.23390625 1.23046875 13.3203125 C1 16 1 16 -1 18 C-2.06924537 14.79226388 -2.16684956 12.37015182 -2.1875 9 C-2.20167969 7.948125 -2.21585938 6.89625 -2.23046875 5.8125 C-2 3 -2 3 0 0 Z " fill="#2B9EF4" transform="translate(148,499)"/>
<path d="M0 0 C1.13732426 3.40401948 0.83989957 5.77456664 0.0625 9.25 C-0.13214844 10.14203125 -0.32679688 11.0340625 -0.52734375 11.953125 C-0.68332031 12.62859375 -0.83929688 13.3040625 -1 14 C-1.99 14.33 -2.98 14.66 -4 15 C-4.33 15.66 -4.66 16.32 -5 17 C-5.27771418 12.32051602 -4.54837397 9.32416664 -2.5 5.125 C-2.0359375 4.15820312 -1.571875 3.19140625 -1.09375 2.1953125 C-0.7328125 1.47085937 -0.371875 0.74640625 0 0 Z " fill="#D0D6DB" transform="translate(448,332)"/>
<path d="M0 0 C0 1.65 0 3.3 0 5 C-0.33 3.68 -0.66 2.36 -1 1 C-4.88692383 3.63755546 -7.88637413 6.77274826 -10 11 C-11 10 -11 10 -11.09765625 7.93359375 C-11.08605469 7.10988281 -11.07445312 6.28617188 -11.0625 5.4375 C-11.05347656 4.61121094 -11.04445312 3.78492188 -11.03515625 2.93359375 C-11.02355469 2.29550781 -11.01195312 1.65742187 -11 1 C-7.27569643 0.30710631 -3.78916254 -0.11144596 0 0 Z " fill="#45AAF5" transform="translate(157,532)"/>
<path d="M0 0 C0.33 0.66 0.66 1.32 1 2 C0.67 2.66 0.34 3.32 0 4 C-0.66 4 -1.32 4 -2 4 C-2.26554687 4.72574219 -2.53109375 5.45148438 -2.8046875 6.19921875 C-4.00072948 9.00170928 -5.40329107 11.30479352 -7.125 13.8125 C-7.66382813 14.60269531 -8.20265625 15.39289063 -8.7578125 16.20703125 C-9.16773438 16.79871094 -9.57765625 17.39039063 -10 18 C-10 11.67396015 -6.24048114 5.52317989 -2 1 C-1.34 0.67 -0.68 0.34 0 0 Z " fill="#C8CDD1" transform="translate(419,387)"/>
<path d="M0 0 C0.33 0 0.66 0 1 0 C1 2.97 1 5.94 1 9 C0.34 9 -0.32 9 -1 9 C-1.33 11.64 -1.66 14.28 -2 17 C-2.66 17 -3.32 17 -4 17 C-3.45018084 10.95198929 -2.09570426 5.69398894 0 0 Z " fill="#C3D2DD" transform="translate(459,296)"/>
<path d="M0 0 C0 3.67914713 -0.82802213 4.39826865 -3.1875 7.125 C-3.77917969 7.82882812 -4.37085938 8.53265625 -4.98046875 9.2578125 C-7.32542438 11.28073361 -8.96066402 11.65354719 -12 12 C-8.57833482 7.29521038 -4.42094803 3.72346836 0 0 Z " fill="#B4BEC7" transform="translate(376,434)"/>
<path d="M0 0 C1.30009681 3.90029042 0.40794184 5.73511117 -0.8125 9.625 C-1.16957031 10.79289062 -1.52664063 11.96078125 -1.89453125 13.1640625 C-3 16 -3 16 -5 17 C-4.8864371 15.35333797 -4.75882619 13.70763918 -4.625 12.0625 C-4.55539062 11.14597656 -4.48578125 10.22945313 -4.4140625 9.28515625 C-4.27742188 8.53105469 -4.14078125 7.77695312 -4 7 C-3.34 6.67 -2.68 6.34 -2 6 C-1.27306096 4.02111039 -0.60183749 2.02045442 0 0 Z " fill="#EBEBEB" transform="translate(453,325)"/>
<path d="M0 0 C3.06813137 4.60219706 2.25317679 9.22776249 1.5 14.5 C1.2525 15.7375 1.2525 15.7375 1 17 C0.67 17 0.34 17 0 17 C-0.89316269 11.06390334 -0.97040422 5.93024803 0 0 Z " fill="#E4E6E9" transform="translate(460,284)"/>
<path d="M0 0 C1.98 0 3.96 0 6 0 C5.67 0.99 5.34 1.98 5 3 C7.31 3 9.62 3 12 3 C12 3.33 12 3.66 12 4 C8.04 4 4.08 4 0 4 C0 2.68 0 1.36 0 0 Z " fill="#DCDBDA" transform="translate(222,468)"/>
<path d="M0 0 C6.92307692 5.53846154 6.92307692 5.53846154 9 9 C9 9.99 9 10.98 9 12 C7 12 7 12 5.5625 10.875 C2.86415921 7.63699105 1.32425666 3.97276999 0 0 Z " fill="#E2E2E1" transform="translate(142,370)"/>
<path d="M0 0 C2.9156164 3.54039134 5.50127818 7.1626772 8 11 C7.34 12.32 6.68 13.64 6 15 C5.73445312 14.36191406 5.46890625 13.72382813 5.1953125 13.06640625 C4.84210938 12.24011719 4.48890625 11.41382813 4.125 10.5625 C3.77695313 9.73878906 3.42890625 8.91507812 3.0703125 8.06640625 C2.1755063 5.84253285 2.1755063 5.84253285 0 5 C0 3.35 0 1.7 0 0 Z " fill="#BAC6CF" transform="translate(141,362)"/>
<path d="M0 0 C0.33 0 0.66 0 1 0 C1.38281159 5.23175837 0.21854707 8.37802694 -2 13 C-2.66 13 -3.32 13 -4 13 C-3.27991594 8.39146203 -1.68704061 4.32762591 0 0 Z " fill="#CAD3DA" transform="translate(453,319)"/>
<path d="M0 0 C0.66 0.66 1.32 1.32 2 2 C0.35 5.3 -1.3 8.6 -3 12 C-3.33 12 -3.66 12 -4 12 C-3.67 8.7 -3.34 5.4 -3 2 C-2.01 2 -1.02 2 0 2 C0 1.34 0 0.68 0 0 Z " fill="#E7E7E8" transform="translate(170,216)"/>
<path d="M0 0 C0.66 0.33 1.32 0.66 2 1 C-2.39453125 5.00390625 -2.39453125 5.00390625 -4 6 C-4.99 5.67 -5.98 5.34 -7 5 C-6.67 3.68 -6.34 2.36 -6 1 C-4.7934375 1.0309375 -4.7934375 1.0309375 -3.5625 1.0625 C-1.06645115 1.29633621 -1.06645115 1.29633621 0 0 Z " fill="#E6E5E5" transform="translate(368,446)"/>
<path d="M0 0 C3.74525799 3.74525799 3.68909949 7.98270909 4 13 C-1.16483516 5.25274725 -1.16483516 5.25274725 -0.6875 1.625 C-0.460625 1.08875 -0.23375 0.5525 0 0 Z " fill="#E2E2E2" transform="translate(124,330)"/>
<path d="M0 0 C0.66 1.32 1.32 2.64 2 4 C2.66 3.67 3.32 3.34 4 3 C3.67 5.97 3.34 8.94 3 12 C1.09598862 10.09598862 0.06479561 8.66574314 -0.19921875 5.953125 C-0.1886578 3.96766727 -0.09915043 1.9830086 0 0 Z " fill="#B8DEFA" transform="translate(413,518)"/>
<path d="M0 0 C2.33333333 2.33333333 4.66666667 4.66666667 7 7 C6.625 9.125 6.625 9.125 6 11 C4.9944239 9.54550599 3.99569565 8.08627557 3 6.625 C2.443125 5.81289062 1.88625 5.00078125 1.3125 4.1640625 C0 2 0 2 0 0 Z " fill="#C1C8CC" transform="translate(294,66)"/>
<path d="M0 0 C2.97 1.98 2.97 1.98 6 4 C5.67 4.66 5.34 5.32 5 6 C3.68 6 2.36 6 1 6 C0.67 4.02 0.34 2.04 0 0 Z " fill="#CBCED0" transform="translate(213,443)"/>
<path d="M0 0 C0 3 0 3 -1 6 C-1.66 6 -2.32 6 -3 6 C-3.33 6.99 -3.66 7.98 -4 9 C-4.125 3.25 -4.125 3.25 -3 1 C-2.01 0.67 -1.02 0.34 0 0 Z " fill="#CED3D8" transform="translate(438,358)"/>
<path d="M0 0 C0.99 0 1.98 0 3 0 C3 1.32 3 2.64 3 4 C2.34 4 1.68 4 1 4 C1 6.31 1 8.62 1 11 C0.67 11 0.34 11 0 11 C0 7.37 0 3.74 0 0 Z " fill="#46ABF5" transform="translate(202,510)"/>
<path d="M0 0 C2.475 0.495 2.475 0.495 5 1 C5.66 2.98 6.32 4.96 7 7 C6.34 7 5.68 7 5 7 C3.7109375 5.46875 3.7109375 5.46875 2.375 3.5 C1.70597656 2.52546875 1.70597656 2.52546875 1.0234375 1.53125 C0.68570313 1.0259375 0.34796875 0.520625 0 0 Z " fill="#C9CCCE" transform="translate(186,422)"/>
<path d="M0 0 C3.40320742 1.01176437 4.75725331 1.64843582 6.8125 4.625 C7.204375 5.40875 7.59625 6.1925 8 7 C6.68 6.67 5.36 6.34 4 6 C4 5.34 4 4.68 4 4 C3.34 4 2.68 4 2 4 C1.34 2.68 0.68 1.36 0 0 Z " fill="#E0E0E0" transform="translate(292,69)"/>
<path d="M0 0 C0.99 0 1.98 0 3 0 C2.67 2.97 2.34 5.94 2 9 C-0.29013653 5.5647952 -0.17842973 4.014669 0 0 Z " fill="#C1D9EA" transform="translate(456,215)"/>
<path d="M0 0 C0.99 0.33 1.98 0.66 3 1 C0.03 3.475 0.03 3.475 -3 6 C-3.66 5.67 -4.32 5.34 -5 5 C-3.35 3.35 -1.7 1.7 0 0 Z " fill="#308DD4" transform="translate(161,151)"/>
</svg>
